<svg xmlns="http://www.w3.org/2000/svg" xmlns:xlink="http://www.w3.org/1999/xlink" width="40" zoomAndPan="magnify" viewBox="0 0 30 30.000001" height="40" preserveAspectRatio="xMidYMid meet" version="1.0"><defs><clipPath id="0ed042eb25"><path d="M 0.484375 0 L 29.515625 0 L 29.515625 29.03125 L 0.484375 29.03125 Z M 0.484375 0 " clip-rule="nonzero"/></clipPath><clipPath id="65a78a86ba"><path d="M 14 3.410156 L 25 3.410156 L 25 25.910156 L 14 25.910156 Z M 14 3.410156 " clip-rule="nonzero"/></clipPath><clipPath id="4011e3bcd5"><path d="M 5 6 L 15 6 L 15 25.910156 L 5 25.910156 Z M 5 6 " clip-rule="nonzero"/></clipPath><clipPath id="dcb0a3357c"><path d="M 3.894531 24 L 26.394531 24 L 26.394531 25.910156 L 3.894531 25.910156 Z M 3.894531 24 " clip-rule="nonzero"/></clipPath></defs><g clip-path="url(#0ed042eb25)"><path fill="#ffffff" d="M 0.484375 0 L 29.515625 0 L 29.515625 29.03125 L 0.484375 29.03125 Z M 0.484375 0 " fill-opacity="1" fill-rule="nonzero"/><path fill="#ffffff" d="M 0.484375 0 L 29.515625 0 L 29.515625 29.03125 L 0.484375 29.03125 Z M 0.484375 0 " fill-opacity="1" fill-rule="nonzero"/></g><g clip-path="url(#65a78a86ba)"><path fill="#ff751f" d="M 24.589844 25.355469 L 14.546875 25.355469 C 14.390625 25.355469 14.261719 25.226562 14.261719 25.054688 L 14.261719 3.972656 C 14.261719 3.800781 14.390625 3.671875 14.546875 3.671875 L 24.589844 3.671875 C 24.746094 3.671875 24.890625 3.800781 24.890625 3.972656 L 24.890625 25.054688 C 24.890625 25.226562 24.746094 25.355469 24.589844 25.355469 Z M 14.847656 24.757812 L 24.289062 24.757812 L 24.289062 4.257812 L 14.847656 4.257812 Z M 14.847656 24.757812 " fill-opacity="1" fill-rule="evenodd"/></g><g clip-path="url(#4011e3bcd5)"><path fill="#ff751f" d="M 14.546875 25.355469 L 5.40625 25.355469 C 5.238281 25.355469 5.105469 25.226562 5.105469 25.054688 L 5.105469 11.851562 C 5.105469 11.746094 5.171875 11.65625 5.261719 11.601562 L 14.40625 6.457031 C 14.496094 6.40625 14.613281 6.40625 14.703125 6.457031 C 14.796875 6.511719 14.847656 6.601562 14.847656 6.707031 L 14.847656 25.054688 C 14.847656 25.226562 14.71875 25.355469 14.546875 25.355469 Z M 5.691406 24.757812 L 14.261719 24.757812 L 14.261719 7.214844 L 5.691406 12.03125 Z M 5.691406 24.757812 " fill-opacity="1" fill-rule="evenodd"/></g><path fill="#ff751f" d="M 13.179688 23.335938 L 6.785156 23.335938 C 6.617188 23.335938 6.488281 23.207031 6.488281 23.039062 C 6.488281 22.882812 6.617188 22.75 6.785156 22.75 L 13.179688 22.75 C 13.335938 22.75 13.46875 22.882812 13.46875 23.039062 C 13.46875 23.207031 13.335938 23.335938 13.179688 23.335938 Z M 13.179688 23.335938 " fill-opacity="1" fill-rule="evenodd"/><path fill="#ff751f" d="M 13.179688 21.242188 L 6.785156 21.242188 C 6.617188 21.242188 6.488281 21.109375 6.488281 20.941406 C 6.488281 20.785156 6.617188 20.652344 6.785156 20.652344 L 13.179688 20.652344 C 13.335938 20.652344 13.46875 20.785156 13.46875 20.941406 C 13.46875 21.109375 13.335938 21.242188 13.179688 21.242188 Z M 13.179688 21.242188 " fill-opacity="1" fill-rule="evenodd"/><path fill="#ff751f" d="M 13.179688 19.144531 L 6.785156 19.144531 C 6.617188 19.144531 6.488281 19.011719 6.488281 18.84375 C 6.488281 18.6875 6.617188 18.558594 6.785156 18.558594 L 13.179688 18.558594 C 13.335938 18.558594 13.46875 18.6875 13.46875 18.84375 C 13.46875 19.011719 13.335938 19.144531 13.179688 19.144531 Z M 13.179688 19.144531 " fill-opacity="1" fill-rule="evenodd"/><path fill="#ff751f" d="M 13.179688 17.046875 L 6.785156 17.046875 C 6.617188 17.046875 6.488281 16.917969 6.488281 16.761719 C 6.488281 16.589844 6.617188 16.460938 6.785156 16.460938 L 13.179688 16.460938 C 13.335938 16.460938 13.46875 16.589844 13.46875 16.761719 C 13.46875 16.917969 13.335938 17.046875 13.179688 17.046875 Z M 13.179688 17.046875 " fill-opacity="1" fill-rule="evenodd"/><path fill="#ff751f" d="M 22.558594 8.476562 L 16.578125 8.476562 C 16.410156 8.476562 16.28125 8.347656 16.28125 8.175781 L 16.28125 6.40625 C 16.28125 6.238281 16.410156 6.105469 16.578125 6.105469 L 22.558594 6.105469 C 22.726562 6.105469 22.855469 6.238281 22.855469 6.40625 L 22.855469 8.175781 C 22.855469 8.347656 22.726562 8.476562 22.558594 8.476562 Z M 22.558594 12.085938 L 16.578125 12.085938 C 16.410156 12.085938 16.28125 11.953125 16.28125 11.785156 L 16.28125 10.015625 C 16.28125 9.84375 16.410156 9.714844 16.578125 9.714844 L 22.558594 9.714844 C 22.726562 9.714844 22.855469 9.84375 22.855469 10.015625 L 22.855469 11.785156 C 22.855469 11.953125 22.726562 12.085938 22.558594 12.085938 Z M 22.558594 15.691406 L 16.578125 15.691406 C 16.410156 15.691406 16.28125 15.5625 16.28125 15.40625 L 16.28125 13.621094 C 16.28125 13.464844 16.410156 13.320312 16.578125 13.320312 L 22.558594 13.320312 C 22.726562 13.320312 22.855469 13.464844 22.855469 13.621094 L 22.855469 15.40625 C 22.855469 15.5625 22.726562 15.691406 22.558594 15.691406 Z M 22.558594 19.3125 L 16.578125 19.3125 C 16.410156 19.3125 16.28125 19.167969 16.28125 19.011719 L 16.28125 17.230469 C 16.28125 17.074219 16.410156 16.941406 16.578125 16.941406 L 22.558594 16.941406 C 22.726562 16.941406 22.855469 17.074219 22.855469 17.230469 L 22.855469 19.011719 C 22.855469 19.167969 22.726562 19.3125 22.558594 19.3125 Z M 22.558594 22.921875 L 16.578125 22.921875 C 16.410156 22.921875 16.28125 22.789062 16.28125 22.621094 L 16.28125 20.851562 C 16.28125 20.679688 16.410156 20.550781 16.578125 20.550781 L 22.558594 20.550781 C 22.726562 20.550781 22.855469 20.679688 22.855469 20.851562 L 22.855469 22.621094 C 22.855469 22.789062 22.726562 22.921875 22.558594 22.921875 Z M 22.558594 22.921875 " fill-opacity="1" fill-rule="evenodd"/><path fill="#ff751f" d="M 11.292969 15.261719 C 11.253906 15.261719 11.203125 15.261719 11.164062 15.238281 L 9.976562 14.664062 L 8.792969 15.238281 C 8.699219 15.289062 8.582031 15.277344 8.492188 15.210938 C 8.402344 15.144531 8.363281 15.042969 8.375 14.9375 L 8.542969 13.632812 L 7.644531 12.683594 C 7.566406 12.605469 7.542969 12.488281 7.582031 12.382812 C 7.605469 12.28125 7.699219 12.203125 7.800781 12.1875 L 9.089844 11.953125 L 9.714844 10.796875 C 9.769531 10.691406 9.871094 10.640625 9.976562 10.640625 C 10.082031 10.640625 10.183594 10.691406 10.238281 10.796875 L 10.863281 11.953125 L 12.152344 12.1875 C 12.257812 12.203125 12.347656 12.28125 12.386719 12.382812 C 12.414062 12.488281 12.386719 12.605469 12.320312 12.683594 L 11.410156 13.632812 L 11.578125 14.9375 C 11.605469 15.042969 11.554688 15.144531 11.460938 15.210938 C 11.410156 15.25 11.359375 15.261719 11.292969 15.261719 Z M 11.292969 15.261719 " fill-opacity="1" fill-rule="evenodd"/><path fill="#ff751f" d="M 6.550781 10.378906 L 6.550781 5.105469 C 6.550781 4.933594 6.683594 4.804688 6.851562 4.804688 L 9.285156 4.804688 C 9.457031 4.804688 9.585938 4.933594 9.585938 5.105469 L 9.585938 8.671875 Z M 6.550781 10.378906 " fill-opacity="1" fill-rule="evenodd"/><path fill="#ff751f" d="M 10.261719 8.296875 L 10.261719 5.519531 C 10.261719 5.363281 10.394531 5.222656 10.550781 5.222656 L 13 5.222656 C 13.15625 5.222656 13.296875 5.363281 13.296875 5.519531 L 13.296875 6.589844 Z M 10.261719 8.296875 " fill-opacity="1" fill-rule="evenodd"/><g clip-path="url(#dcb0a3357c)"><path fill="#ff751f" d="M 25.800781 25.355469 L 4.179688 25.355469 C 4.023438 25.355469 3.894531 25.226562 3.894531 25.054688 C 3.894531 24.886719 4.023438 24.757812 4.179688 24.757812 L 25.800781 24.757812 C 25.96875 24.757812 26.101562 24.886719 26.101562 25.054688 C 26.101562 25.226562 25.96875 25.355469 25.800781 25.355469 Z M 25.800781 25.355469 " fill-opacity="1" fill-rule="evenodd"/></g></svg>