<svg xmlns="http://www.w3.org/2000/svg" xmlns:xlink="http://www.w3.org/1999/xlink" width="40" zoomAndPan="magnify" viewBox="0 0 30 30.000001" height="40" preserveAspectRatio="xMidYMid meet" version="1.0"><defs><clipPath id="cb35f76921"><path d="M 0.484375 0 L 29.515625 0 L 29.515625 29.03125 L 0.484375 29.03125 Z M 0.484375 0 " clip-rule="nonzero"/></clipPath><clipPath id="b0069cc70d"><path d="M 3.128906 3.148438 L 27 3.148438 L 27 25.648438 L 3.128906 25.648438 Z M 3.128906 3.148438 " clip-rule="nonzero"/></clipPath></defs><g clip-path="url(#cb35f76921)"><path fill="#ffffff" d="M 0.484375 0 L 29.515625 0 L 29.515625 29.03125 L 0.484375 29.03125 Z M 0.484375 0 " fill-opacity="1" fill-rule="nonzero"/><path fill="#ffffff" d="M 0.484375 0 L 29.515625 0 L 29.515625 29.03125 L 0.484375 29.03125 Z M 0.484375 0 " fill-opacity="1" fill-rule="nonzero"/></g><g clip-path="url(#b0069cc70d)"><path fill="#ff751f" d="M 26.78125 3.457031 C 26.78125 3.289062 26.644531 3.152344 26.472656 3.152344 L 3.519531 3.152344 C 3.4375 3.152344 3.359375 3.183594 3.300781 3.242188 C 3.246094 3.300781 3.210938 3.378906 3.210938 3.457031 L 3.207031 18.917969 C 3.207031 19.945312 4.042969 20.777344 5.070312 20.777344 L 12.683594 20.777344 L 12 23.816406 L 10.753906 23.816406 C 10.378906 23.816406 10.070312 24.125 10.070312 24.5 L 10.070312 25.199219 C 10.070312 25.578125 10.378906 25.882812 10.753906 25.882812 L 19.238281 25.882812 C 19.617188 25.882812 19.921875 25.578125 19.921875 25.199219 L 19.921875 24.5 C 19.921875 24.125 19.617188 23.816406 19.238281 23.816406 L 17.992188 23.816406 L 17.308594 20.777344 L 24.925781 20.777344 C 25.949219 20.777344 26.785156 19.945312 26.785156 18.917969 L 26.777344 3.457031 Z M 26.167969 3.765625 L 26.171875 5.558594 C 26.171875 6.65625 25.277344 7.546875 24.179688 7.546875 C 23.082031 7.546875 22.191406 6.65625 22.191406 5.558594 L 22.1875 3.765625 Z M 5.601562 8.148438 C 5.671875 8.15625 5.742188 8.160156 5.816406 8.160156 C 6.808594 8.160156 7.675781 7.601562 8.113281 6.78125 C 8.550781 7.601562 9.414062 8.160156 10.40625 8.160156 C 11.402344 8.160156 12.265625 7.601562 12.703125 6.78125 C 13.140625 7.601562 14.003906 8.160156 15 8.160156 C 15.992188 8.160156 16.855469 7.601562 17.292969 6.78125 C 17.730469 7.601562 18.597656 8.160156 19.589844 8.160156 C 20.582031 8.160156 21.445312 7.601562 21.886719 6.78125 C 22.324219 7.601562 23.1875 8.160156 24.179688 8.160156 C 24.246094 8.160156 24.308594 8.15625 24.371094 8.152344 L 24.371094 18.363281 L 5.601562 18.363281 Z M 21.578125 3.765625 L 21.578125 5.558594 C 21.578125 6.65625 20.6875 7.546875 19.589844 7.546875 C 18.492188 7.546875 17.601562 6.65625 17.601562 5.558594 L 17.597656 3.765625 Z M 16.984375 3.765625 L 16.988281 5.558594 C 16.988281 6.65625 16.09375 7.546875 15 7.546875 C 13.902344 7.546875 13.007812 6.65625 13.007812 5.558594 L 13.007812 3.765625 Z M 12.394531 3.765625 L 12.398438 5.558594 C 12.398438 6.65625 11.503906 7.546875 10.40625 7.546875 C 9.3125 7.546875 8.417969 6.65625 8.417969 5.558594 L 8.417969 3.765625 Z M 7.804688 3.765625 L 7.804688 5.558594 C 7.804688 6.65625 6.914062 7.546875 5.816406 7.546875 C 4.71875 7.546875 3.828125 6.65625 3.828125 5.558594 L 3.824219 3.765625 Z M 19.3125 24.5 L 19.3125 25.199219 C 19.3125 25.238281 19.28125 25.273438 19.238281 25.273438 L 10.753906 25.273438 C 10.714844 25.273438 10.683594 25.238281 10.683594 25.199219 L 10.683594 24.5 C 10.683594 24.460938 10.714844 24.429688 10.753906 24.429688 L 19.238281 24.429688 C 19.28125 24.429688 19.3125 24.460938 19.3125 24.5 Z M 17.367188 23.816406 L 12.628906 23.816406 L 13.3125 20.777344 L 16.683594 20.777344 Z M 24.925781 20.167969 L 5.070312 20.167969 C 4.378906 20.167969 3.820312 19.605469 3.820312 18.917969 L 3.820312 7.222656 C 4.125 7.589844 4.527344 7.867188 4.988281 8.023438 L 4.988281 18.667969 C 4.988281 18.835938 5.125 18.976562 5.292969 18.976562 L 24.675781 18.976562 C 24.84375 18.976562 24.984375 18.835938 24.984375 18.667969 L 24.984375 8.03125 C 25.453125 7.878906 25.863281 7.597656 26.175781 7.226562 L 26.175781 18.917969 C 26.175781 19.605469 25.613281 20.167969 24.925781 20.167969 Z M 13.773438 14.9375 C 13.175781 14.9375 12.6875 15.425781 12.6875 16.027344 C 12.6875 16.625 13.175781 17.113281 13.773438 17.113281 C 14.371094 17.113281 14.859375 16.625 14.859375 16.027344 C 14.859375 15.425781 14.371094 14.9375 13.773438 14.9375 Z M 13.773438 16.5 C 13.511719 16.5 13.300781 16.289062 13.300781 16.027344 C 13.300781 15.765625 13.511719 15.550781 13.773438 15.550781 C 14.035156 15.550781 14.25 15.765625 14.25 16.027344 C 14.25 16.289062 14.035156 16.5 13.773438 16.5 Z M 16.679688 14.9375 C 16.078125 14.9375 15.59375 15.425781 15.59375 16.027344 C 15.59375 16.625 16.078125 17.113281 16.679688 17.113281 C 17.277344 17.113281 17.765625 16.625 17.765625 16.027344 C 17.765625 15.425781 17.277344 14.9375 16.679688 14.9375 Z M 16.679688 16.5 C 16.417969 16.5 16.203125 16.289062 16.203125 16.027344 C 16.203125 15.765625 16.417969 15.550781 16.679688 15.550781 C 16.941406 15.550781 17.152344 15.765625 17.152344 16.027344 C 17.152344 16.289062 16.941406 16.5 16.679688 16.5 Z M 20.453125 14.433594 L 20.988281 13.894531 C 21.0625 13.820312 21.09375 13.714844 21.074219 13.617188 C 21.050781 13.515625 20.980469 13.429688 20.886719 13.394531 L 18.464844 12.441406 L 18.945312 10.71875 C 18.96875 10.628906 18.949219 10.527344 18.894531 10.453125 C 18.835938 10.375 18.746094 10.332031 18.648438 10.332031 L 11.988281 10.332031 L 11.746094 9.433594 C 11.710938 9.300781 11.589844 9.207031 11.449219 9.207031 L 10.011719 9.207031 C 9.84375 9.207031 9.703125 9.34375 9.703125 9.515625 C 9.703125 9.683594 9.84375 9.820312 10.011719 9.820312 L 11.214844 9.820312 L 12.414062 14.265625 C 12.449219 14.398438 12.570312 14.492188 12.710938 14.492188 L 17.535156 14.492188 L 18.171875 16.105469 C 18.207031 16.203125 18.292969 16.273438 18.394531 16.292969 C 18.496094 16.316406 18.597656 16.285156 18.671875 16.210938 L 19.210938 15.671875 L 19.949219 16.410156 C 20.007812 16.46875 20.085938 16.5 20.167969 16.5 C 20.25 16.5 20.324219 16.46875 20.382812 16.410156 L 21.191406 15.605469 C 21.308594 15.484375 21.308594 15.292969 21.191406 15.171875 Z M 12.945312 13.878906 L 12.152344 10.945312 L 18.246094 10.945312 L 17.890625 12.214844 L 17.0625 11.890625 C 16.949219 11.84375 16.820312 11.871094 16.734375 11.957031 C 16.648438 12.042969 16.621094 12.171875 16.667969 12.285156 L 17.292969 13.878906 Z M 20.167969 15.761719 L 19.429688 15.023438 C 19.371094 14.964844 19.292969 14.933594 19.210938 14.933594 C 19.128906 14.933594 19.050781 14.964844 18.996094 15.023438 L 18.570312 15.449219 L 17.496094 12.714844 L 20.226562 13.792969 L 19.800781 14.214844 C 19.683594 14.335938 19.683594 14.53125 19.800781 14.648438 L 20.542969 15.386719 Z M 20.167969 15.761719 " fill-opacity="1" fill-rule="nonzero"/></g></svg>